<svg xmlns="http://www.w3.org/2000/svg" viewBox="0 0 87.01 87.01"><defs><style>.cls-1{fill:#fff;}</style></defs><title>logo-white</title><g id="Layer_2" data-name="Layer 2"><g id="Layer_3" data-name="Layer 3"><path class="cls-1" d="M43.5,8.5a35,35,0,1,1,0,70A35,35,0,0,1,18.75,18.75,34.77,34.77,0,0,1,43.5,8.5m0-8.5A43.51,43.51,0,1,0,87,43.5,43.51,43.51,0,0,0,43.5,0Z"/><polygon class="cls-1" points="33.65 64.41 8.5 64.41 8.5 50.3 19.54 50.3 19.54 23.03 33.65 23.03 33.65 64.41"/><rect class="cls-1" x="36.54" y="42.57" width="14.1" height="21.84"/><rect class="cls-1" x="53.7" y="23.2" width="14.1" height="41.29"/></g></g></svg>