<svg xmlns="http://www.w3.org/2000/svg" viewBox="0 0 96 96"><defs><style>.cls-1{fill:#7b00fc;}</style></defs><title>logo-purple</title><g id="Layer_2" data-name="Layer 2"><g id="Layer_3" data-name="Layer 3"><path class="cls-1" d="M48,9.38A38.62,38.62,0,0,1,75.31,75.31,38.62,38.62,0,1,1,20.69,20.69,38.33,38.33,0,0,1,48,9.38M48,0A48,48,0,1,0,96,48,48,48,0,0,0,48,0Z"/><polygon class="cls-1" points="36.76 70.88 16.88 70.88 10.69 63.94 9.94 55.31 21.26 55.31 21.38 25.28 36.94 25.34 36.76 70.88"/><rect class="cls-1" x="40.17" y="48.75" width="15.56" height="22.13"/><rect class="cls-1" x="59.06" y="25.31" width="15.56" height="45.56"/></g></g></svg>